
        <svg xmlns="http://www.w3.org/2000/svg" xmlns:xlink="http://www.w3.org/1999/xlink" version="1.1" width="3162.251211368423" 
        height="606.3939868173438" viewBox="0 0 3162.251211368423 606.3939868173438">
			
			<g transform="scale(8.112560568421149) translate(10, 10)">
				<defs id="SvgjsDefs2130"></defs><g id="SvgjsG2131" featureKey="symbolFeature-0" transform="matrix(0.5810671822577322,0,0,0.5810671822577322,-2.9512396623215786,-0.9053359112886614)" fill="#02b7ff"><path xmlns="http://www.w3.org/2000/svg" d="M16.309,83.271c6.192,0,11.23-5.038,11.23-11.23V45.088V16.23c0-1.239,1.008-2.246,2.246-2.246  c1.239,0,2.246,1.008,2.246,2.246v28.857v9.824c0,6.192,5.038,11.23,11.23,11.23s11.23-5.038,11.23-11.23v-9.824V34.697  c0-1.239,1.008-2.246,2.246-2.246s2.246,1.008,2.246,2.246v10.391V83.77c0,6.192,5.038,11.23,11.23,11.23  c6.192,0,11.23-5.038,11.23-11.23V50.488c0-1.239,1.008-2.246,2.246-2.246c1.239,0,2.246,1.008,2.246,2.246v6.738  c0,2.477,2.015,4.492,4.492,4.492c2.477,0,4.492-2.015,4.492-4.492v-6.738c0-6.192-5.038-11.23-11.23-11.23  c-6.192,0-11.23,5.038-11.23,11.23V83.77c0,1.239-1.008,2.246-2.246,2.246s-2.246-1.008-2.246-2.246V45.088V34.697  c0-6.192-5.038-11.23-11.23-11.23s-11.23,5.038-11.23,11.23v10.391v9.824c0,1.239-1.008,2.246-2.246,2.246s-2.246-1.008-2.246-2.246  v-9.824V16.23c0-6.192-5.038-11.23-11.23-11.23s-11.23,5.038-11.23,11.23v28.857v26.953c0,1.239-1.008,2.246-2.246,2.246  s-2.246-1.008-2.246-2.246V45.859c0-2.477-2.015-4.492-4.492-4.492s-4.492,2.015-4.492,4.492v26.182  C5.078,78.233,10.116,83.271,16.309,83.271z"></path></g><g id="SvgjsG2132" featureKey="nameFeature-0" transform="matrix(1.9496985069209913,0,0,1.9496985069209913,72,-23.24041192938058)" fill="#0252fe"><path d="M2.36 13.48 l4.52 0 l6.96 14.48 l0.84 -1.72 l-6.88 -14.24 l-7.8 0 l13.48 28 l0.68 0 l12.84 -26.52 l1.4 0 l-12.88 26.52 l1.64 0 l13.6 -28 l-4.68 0 l-12.24 25.2 z M13.88 34.44 l10.84 -22.44 l-1.68 0 l-9.16 19.04 l-7.88 -16.28 l-1.64 0 z M48.80499999999999 40 c-2.44 0 -4.76 -0.64 -6.96 -1.92 c-4.4 -2.52 -7.12 -7.16 -7.12 -12.12 c0 -2.48 0.64 -4.8 1.92 -7 c2.52 -4.32 7.24 -7.04 12.16 -7.04 c2.44 0 4.8 0.64 7 1.88 c4.4 2.56 7.04 7.32 7.04 12.16 c0 2.44 -0.64 4.72 -1.88 6.92 c-2.56 4.4 -7.2 7.12 -12.16 7.12 z M48.80499999999999 13.32 c-2.28 0 -4.4 0.56 -6.32 1.68 c-3.88 2.24 -6.28 6.36 -6.28 10.96 c0 2.28 0.56 4.4 1.68 6.32 c2.24 3.88 6.32 6.28 10.92 6.28 c2.28 0 4.4 -0.56 6.36 -1.68 c3.88 -2.24 6.28 -6.32 6.28 -10.92 c0 -2.28 -0.56 -4.4 -1.68 -6.36 c-2.24 -3.88 -6.48 -6.28 -10.96 -6.28 z M48.80499999999999 37.28 c-2 0 -3.88 -0.52 -5.68 -1.52 c-3.56 -2.04 -5.76 -5.76 -5.76 -9.8 c0 -2.04 0.52 -3.92 1.52 -5.68 c2.04 -3.52 5.64 -5.6 9.92 -5.6 c2.16 0 4.12 0.48 5.84 1.44 c3.44 1.92 5.44 5.52 5.44 9.84 c0 2.04 -0.48 3.92 -1.44 5.64 c-1.96 3.48 -5.8 5.68 -9.84 5.68 z M48.80499999999999 16.08 c-1.8 0 -3.44 0.44 -4.96 1.32 c-3.08 1.76 -4.96 4.92 -4.96 8.56 c0 1.76 0.44 3.4 1.36 4.92 c1.76 3.08 4.88 5 8.56 5 c1.8 0 3.44 -0.44 4.96 -1.36 c3 -1.76 4.92 -5.04 4.92 -8.56 c0 -1.8 -0.44 -3.48 -1.32 -5 c-1.76 -3.04 -5.08 -4.88 -8.56 -4.88 z M48.80499999999999 34.68 c-1.56 0 -3.04 -0.4 -4.36 -1.16 c-2.68 -1.56 -4.4 -4.52 -4.4 -7.56 c0 -1.56 0.4 -3.04 1.2 -4.4 c1.56 -2.72 4.32 -4.28 7.56 -4.28 c1.56 0 3 0.4 4.32 1.16 c2.68 1.56 4.24 4.28 4.24 7.52 c0 1.6 -0.36 3.04 -1.08 4.36 c-1.48 2.64 -4.32 4.36 -7.48 4.36 z M48.80499999999999 18.72 c-1.28 0 -2.48 0.32 -3.6 0.96 c-2.24 1.32 -3.68 3.68 -3.68 6.28 c0 1.28 0.32 2.48 0.96 3.56 c1.28 2.24 3.6 3.6 6.32 3.6 c1.32 0 2.56 -0.32 3.64 -0.96 c2.2 -1.28 3.52 -3.64 3.52 -6.2 c0 -1.32 -0.32 -2.52 -0.96 -3.64 c-1.28 -2.24 -3.64 -3.6 -6.2 -3.6 z M70.81 11.96 l4.12 0 l0 25.4 l-1.48 0 l0 -23.96 l-1.2 0 l0 25.16 l13.16 0 l0 -3.84 l-6.52 0 l0 -1.44 l7.96 0 l0 6.72 l-16.04 0 l0 -28.04 z M76.25 11.96 l1.44 0 l0 23.92 l6.44 0 l0 1.48 l-7.88 0 l0 -25.4 z M99.255 37.52 l1.76 0 l1.4 -3.36 l10.44 0.04 l2.56 5.8 l7.36 -0.04 l-12.6 -27.96 l-2.56 0 l-12.52 27.96 l7.8 0 l1.36 -3.2 l7.96 0 l-0.6 -1.36 l-8.24 0 l-1.28 3.16 l-4.76 0 l11.08 -25.2 l0.96 0 l11.12 25.2 l-4.24 0 l-2.56 -5.72 l-12.4 0 z M104.015 30.48 l4.88 -11.64 l8.2 18.64 l1.64 0 l-9.84 -21.92 l-7.2 16.16 l11.6 0 l-4.4 -9.72 l-3.04 7.32 l1.56 0 l1.48 -3.64 l2.2 4.8 l-7.08 0 z M150.34000000000003 38.56 l-4.6 0 l-5.52 -10.28 l-3.72 0.04 l0 10.24 l-4.04 0 l0 -26.56 l-1.44 0 l0 28 l6.96 0 l0 -10.28 l1.4 0 l5.48 10.28 l7.88 0 l-5.52 -10.32 l-1.32 0.52 z M140.82000000000002 13.440000000000001 c5.8 0 9.08 2.6 9.08 7.36 c0 4.32 -2.6 6.96 -7.12 7.44 l-1.08 0.12 l5 9.24 l1.64 0 l-4.36 -8.12 c4.8 -0.84 7.36 -3.76 7.36 -8.68 c0 -1.64 -0.36 -3.12 -1.04 -4.44 c-1.6 -2.84 -4.88 -4.36 -9.48 -4.36 l-7.08 0 l0 25.56 l1.44 0 l0 -24.12 l5.64 0 z M140.50000000000003 27.04 c5.48 0 8.08 -1.88 8.08 -6.04 c0 -3.96 -2.72 -6.2 -7.08 -6.2 l-5.04 0 l0 4.2 l4.6 0 c2.12 0 3.2 0.6 3.2 1.8 c0 1.4 -1.32 2.08 -4 2.08 l-2.32 0 l0 -2.48 l-1.48 0 l0 3.92 l3.8 0 c3.56 0 5.44 -1.24 5.44 -3.52 c0 -0.72 -0.16 -1.28 -0.52 -1.72 c-0.68 -1 -2.04 -1.48 -4.12 -1.48 l-3.12 0 l0 -1.36 l3.56 0 c3.56 0 5.64 1.72 5.64 4.76 c0 3.16 -2.12 4.64 -6.64 4.64 l-4 0 l0 1.4 l4 0 z"></path></g>
			</g>
		</svg>
	